<svg width="50" height="40" viewBox="0 0 50 40" fill="none" xmlns="http://www.w3.org/2000/svg">
<rect width="50" height="40" fill="black"/>
<mask id="path-2-outside-1_3_40" maskUnits="userSpaceOnUse" x="4" y="6" width="43" height="29" fill="black">
<rect fill="white" x="4" y="6" width="43" height="29"/>
<path d="M8.01953 33.0615C6.55664 33.0615 5.8252 32.6787 5.8252 31.9131V8.92383C5.8252 8.41797 5.94141 8.05566 6.17383 7.83691C6.40625 7.60449 6.77539 7.48828 7.28125 7.48828H14.9512C17.2207 7.48828 19.2305 8.04199 20.9805 9.14941C22.7305 10.2568 23.6055 12.3623 23.6055 15.4658C23.6055 17.5986 23.0996 19.2598 22.0879 20.4492C21.0762 21.625 19.9346 22.418 18.6631 22.8281C17.4053 23.2383 16.2842 23.4434 15.2998 23.4434H11.4443V31.9131C11.4443 32.6787 10.7129 33.0615 9.25 33.0615H8.01953ZM14.6846 18.624C15.5596 18.624 16.3047 18.3916 16.9199 17.9268C17.5488 17.4619 17.8633 16.6416 17.8633 15.4658C17.8633 14.2764 17.5488 13.4424 16.9199 12.9639C16.291 12.4854 15.5459 12.2461 14.6846 12.2461H11.4443V18.624H14.6846ZM37.7354 33.3076C33.6338 33.3076 30.6055 32.2412 28.6504 30.1084C26.709 27.9756 25.7383 24.6602 25.7383 20.1621C25.7383 11.5078 29.7988 7.18066 37.9199 7.18066C39.0273 7.18066 40.1758 7.29004 41.3652 7.50879C42.5547 7.72754 43.5459 8.03516 44.3389 8.43164C45.1455 8.81445 45.5488 9.24512 45.5488 9.72363C45.5488 10.0654 45.4121 10.5166 45.1387 11.0771C44.8652 11.624 44.5371 12.1094 44.1543 12.5332C43.7852 12.957 43.457 13.1689 43.1699 13.1689C43.1016 13.1689 42.917 13.1006 42.6162 12.9639C41.96 12.6904 41.2695 12.4648 40.5449 12.2871C39.834 12.0957 38.9248 12 37.8174 12C35.6709 12 34.0781 12.6836 33.0391 14.0508C32.0137 15.4043 31.501 17.4551 31.501 20.2031C31.501 22.9512 32.0205 25.0225 33.0596 26.417C34.0986 27.8115 35.6572 28.5088 37.7354 28.5088C38.8154 28.5088 39.752 28.3994 40.5449 28.1807C41.3516 27.9619 42.1377 27.6816 42.9033 27.3398C42.9443 27.3262 43.0674 27.2783 43.2725 27.1963C43.4775 27.1006 43.6279 27.0527 43.7236 27.0527C44.0791 27.0527 44.4209 27.2646 44.749 27.6885C45.0771 28.0986 45.3438 28.5703 45.5488 29.1035C45.7539 29.623 45.8564 29.999 45.8564 30.2314C45.8564 30.9014 45.4053 31.4688 44.5029 31.9336C43.6143 32.3984 42.5342 32.7471 41.2627 32.9795C40.0049 33.1982 38.8291 33.3076 37.7354 33.3076Z"/>
</mask>
<path d="M8.01953 33.0615C6.55664 33.0615 5.8252 32.6787 5.8252 31.9131V8.92383C5.8252 8.41797 5.94141 8.05566 6.17383 7.83691C6.40625 7.60449 6.77539 7.48828 7.28125 7.48828H14.9512C17.2207 7.48828 19.2305 8.04199 20.9805 9.14941C22.7305 10.2568 23.6055 12.3623 23.6055 15.4658C23.6055 17.5986 23.0996 19.2598 22.0879 20.4492C21.0762 21.625 19.9346 22.418 18.6631 22.8281C17.4053 23.2383 16.2842 23.4434 15.2998 23.4434H11.4443V31.9131C11.4443 32.6787 10.7129 33.0615 9.25 33.0615H8.01953ZM14.6846 18.624C15.5596 18.624 16.3047 18.3916 16.9199 17.9268C17.5488 17.4619 17.8633 16.6416 17.8633 15.4658C17.8633 14.2764 17.5488 13.4424 16.9199 12.9639C16.291 12.4854 15.5459 12.2461 14.6846 12.2461H11.4443V18.624H14.6846ZM37.7354 33.3076C33.6338 33.3076 30.6055 32.2412 28.6504 30.1084C26.709 27.9756 25.7383 24.6602 25.7383 20.1621C25.7383 11.5078 29.7988 7.18066 37.9199 7.18066C39.0273 7.18066 40.1758 7.29004 41.3652 7.50879C42.5547 7.72754 43.5459 8.03516 44.3389 8.43164C45.1455 8.81445 45.5488 9.24512 45.5488 9.72363C45.5488 10.0654 45.4121 10.5166 45.1387 11.0771C44.8652 11.624 44.5371 12.1094 44.1543 12.5332C43.7852 12.957 43.457 13.1689 43.1699 13.1689C43.1016 13.1689 42.917 13.1006 42.6162 12.9639C41.96 12.6904 41.2695 12.4648 40.5449 12.2871C39.834 12.0957 38.9248 12 37.8174 12C35.6709 12 34.0781 12.6836 33.0391 14.0508C32.0137 15.4043 31.501 17.4551 31.501 20.2031C31.501 22.9512 32.0205 25.0225 33.0596 26.417C34.0986 27.8115 35.6572 28.5088 37.7354 28.5088C38.8154 28.5088 39.752 28.3994 40.5449 28.1807C41.3516 27.9619 42.1377 27.6816 42.9033 27.3398C42.9443 27.3262 43.0674 27.2783 43.2725 27.1963C43.4775 27.1006 43.6279 27.0527 43.7236 27.0527C44.0791 27.0527 44.4209 27.2646 44.749 27.6885C45.0771 28.0986 45.3438 28.5703 45.5488 29.1035C45.7539 29.623 45.8564 29.999 45.8564 30.2314C45.8564 30.9014 45.4053 31.4688 44.5029 31.9336C43.6143 32.3984 42.5342 32.7471 41.2627 32.9795C40.0049 33.1982 38.8291 33.3076 37.7354 33.3076Z" fill="#FFE001"/>
<path d="M6.17383 7.83691L6.85919 8.56511L6.87022 8.55473L6.88093 8.54402L6.17383 7.83691ZM22.0879 20.4492L22.8459 21.1015L22.8496 21.0971L22.0879 20.4492ZM18.6631 22.8281L18.3561 21.8764L18.3531 21.8774L18.6631 22.8281ZM11.4443 23.4434V22.4434H10.4443V23.4434H11.4443ZM16.9199 17.9268L16.3255 17.1225L16.3171 17.1289L16.9199 17.9268ZM11.4443 12.2461V11.2461H10.4443V12.2461H11.4443ZM11.4443 18.624H10.4443V19.624H11.4443V18.624ZM8.01953 33.0615V32.0615C7.34275 32.0615 6.98856 31.9675 6.83748 31.8884C6.77666 31.8566 6.78522 31.846 6.8058 31.8783C6.82898 31.9147 6.8252 31.9386 6.8252 31.9131H5.8252H4.8252C4.8252 32.2704 4.91284 32.6292 5.11889 32.9527C5.32233 33.2722 5.60517 33.5008 5.91008 33.6604C6.49044 33.9641 7.23342 34.0615 8.01953 34.0615V33.0615ZM5.8252 31.9131H6.8252V8.92383H5.8252H4.8252V31.9131H5.8252ZM5.8252 8.92383H6.8252C6.8252 8.7426 6.8466 8.63415 6.86457 8.57813C6.88088 8.52727 6.88798 8.53802 6.85919 8.56511L6.17383 7.83691L5.48846 7.10871C4.96395 7.60237 4.8252 8.29952 4.8252 8.92383H5.8252ZM6.17383 7.83691L6.88093 8.54402C6.8459 8.57905 6.9008 8.48828 7.28125 8.48828V7.48828V6.48828C6.64998 6.48828 5.9666 6.62993 5.46672 7.12981L6.17383 7.83691ZM7.28125 7.48828V8.48828H14.9512V7.48828V6.48828H7.28125V7.48828ZM14.9512 7.48828V8.48828C17.0502 8.48828 18.8709 8.99786 20.4457 9.99443L20.9805 9.14941L21.5152 8.3044C19.59 7.08612 17.3912 6.48828 14.9512 6.48828V7.48828ZM20.9805 9.14941L20.4457 9.99443C21.7796 10.8385 22.6055 12.5223 22.6055 15.4658H23.6055H24.6055C24.6055 12.2023 23.6814 9.67517 21.5152 8.3044L20.9805 9.14941ZM23.6055 15.4658H22.6055C22.6055 17.4481 22.1358 18.8494 21.3262 19.8013L22.0879 20.4492L22.8496 21.0971C24.0634 19.6701 24.6055 17.7491 24.6055 15.4658H23.6055ZM22.0879 20.4492L21.3299 19.797C20.4185 20.8562 19.426 21.5313 18.3561 21.8764L18.6631 22.8281L18.9701 23.7798C20.4432 23.3046 21.7339 22.3938 22.8459 21.1015L22.0879 20.4492ZM18.6631 22.8281L18.3531 21.8774C17.1632 22.2654 16.1497 22.4434 15.2998 22.4434V23.4434V24.4434C16.4186 24.4434 17.6473 24.2112 18.9731 23.7789L18.6631 22.8281ZM15.2998 23.4434V22.4434H11.4443V23.4434V24.4434H15.2998V23.4434ZM11.4443 23.4434H10.4443V31.9131H11.4443H12.4443V23.4434H11.4443ZM11.4443 31.9131H10.4443C10.4443 31.9386 10.4406 31.9147 10.4637 31.8783C10.4843 31.846 10.4929 31.8566 10.4321 31.8884C10.281 31.9675 9.92678 32.0615 9.25 32.0615V33.0615V34.0615C10.0361 34.0615 10.7791 33.9641 11.3594 33.6604C11.6644 33.5008 11.9472 33.2722 12.1506 32.9527C12.3567 32.6292 12.4443 32.2704 12.4443 31.9131H11.4443ZM9.25 33.0615V32.0615H8.01953V33.0615V34.0615H9.25V33.0615ZM14.6846 18.624V19.624C15.7465 19.624 16.7109 19.338 17.5228 18.7246L16.9199 17.9268L16.3171 17.1289C15.8984 17.4452 15.3727 17.624 14.6846 17.624V18.624ZM16.9199 17.9268L17.5143 18.7309C18.5074 17.9969 18.8633 16.793 18.8633 15.4658H17.8633H16.8633C16.8633 16.4902 16.5903 16.9269 16.3255 17.1226L16.9199 17.9268ZM17.8633 15.4658H18.8633C18.8633 14.1269 18.5088 12.9163 17.5254 12.168L16.9199 12.9639L16.3144 13.7597C16.5888 13.9685 16.8633 14.4258 16.8633 15.4658H17.8633ZM16.9199 12.9639L17.5254 12.168C16.7066 11.545 15.7438 11.2461 14.6846 11.2461V12.2461V13.2461C15.348 13.2461 15.8755 13.4257 16.3144 13.7597L16.9199 12.9639ZM14.6846 12.2461V11.2461H11.4443V12.2461V13.2461H14.6846V12.2461ZM11.4443 12.2461H10.4443V18.624H11.4443H12.4443V12.2461H11.4443ZM11.4443 18.624V19.624H14.6846V18.624V17.624H11.4443V18.624ZM28.6504 30.1084L27.9109 30.7815L27.9132 30.7841L28.6504 30.1084ZM44.3389 8.43164L43.8917 9.32607L43.9008 9.33066L43.9101 9.33507L44.3389 8.43164ZM45.1387 11.0771L46.0331 11.5244L46.0374 11.5156L45.1387 11.0771ZM44.1543 12.5332L43.4122 11.8629L43.4061 11.8696L43.4002 11.8764L44.1543 12.5332ZM42.6162 12.9639L43.03 12.0535L43.0155 12.0469L43.0008 12.0408L42.6162 12.9639ZM40.5449 12.2871L40.285 13.2527L40.2958 13.2556L40.3067 13.2583L40.5449 12.2871ZM33.0391 14.0508L32.2429 13.4457L32.242 13.4469L33.0391 14.0508ZM40.5449 28.1807L40.2832 27.2155L40.279 27.2167L40.5449 28.1807ZM42.9033 27.3398L42.5871 26.3912L42.5405 26.4067L42.4957 26.4267L42.9033 27.3398ZM43.2725 27.1963L43.6439 28.1248L43.6699 28.1143L43.6953 28.1025L43.2725 27.1963ZM44.749 27.6885L43.9583 28.3006L43.9632 28.3069L43.9682 28.3132L44.749 27.6885ZM45.5488 29.1035L44.6154 29.4625L44.6187 29.4707L45.5488 29.1035ZM44.5029 31.9336L44.045 31.0446L44.0394 31.0475L44.5029 31.9336ZM41.2627 32.9795L41.434 33.9647L41.4425 33.9632L41.2627 32.9795ZM37.7354 33.3076V32.3076C33.7942 32.3076 31.0851 31.2845 29.3875 29.4327L28.6504 30.1084L27.9132 30.7841C30.1259 33.1979 33.4734 34.3076 37.7354 34.3076V33.3076ZM28.6504 30.1084L29.3899 29.4353C27.6884 27.566 26.7383 24.5448 26.7383 20.1621H25.7383H24.7383C24.7383 24.7755 25.7296 28.3852 27.9109 30.7815L28.6504 30.1084ZM25.7383 20.1621H26.7383C26.7383 15.9738 27.7221 13.0187 29.5129 11.1103C31.2925 9.21386 34.0304 8.18066 37.9199 8.18066V7.18066V6.18066C33.6884 6.18066 30.3354 7.31104 28.0545 9.74174C25.7848 12.1605 24.7383 15.6961 24.7383 20.1621H25.7383ZM37.9199 7.18066V8.18066C38.9614 8.18066 40.0492 8.28352 41.1844 8.4923L41.3652 7.50879L41.5461 6.52528C40.3024 6.29655 39.0933 6.18066 37.9199 6.18066V7.18066ZM41.3652 7.50879L41.1844 8.4923C42.3124 8.69976 43.2071 8.9838 43.8917 9.32607L44.3389 8.43164L44.7861 7.53721C43.8847 7.08652 42.7969 6.75532 41.5461 6.52528L41.3652 7.50879ZM44.3389 8.43164L43.9101 9.33507C44.2525 9.49754 44.4327 9.63594 44.5164 9.7253C44.587 9.8007 44.5488 9.79424 44.5488 9.72363H45.5488H46.5488C46.5488 8.60722 45.6157 7.93068 44.7676 7.52821L44.3389 8.43164ZM45.5488 9.72363H44.5488C44.5488 9.83488 44.493 10.1199 44.2399 10.6387L45.1387 11.0771L46.0374 11.5156C46.3313 10.9133 46.5488 10.296 46.5488 9.72363H45.5488ZM45.1387 11.0771L44.2442 10.6299C44.0084 11.1016 43.7303 11.5108 43.4122 11.8629L44.1543 12.5332L44.8964 13.2035C45.344 12.708 45.7221 12.1465 46.0331 11.5244L45.1387 11.0771ZM44.1543 12.5332L43.4002 11.8764C43.2527 12.0458 43.1479 12.1318 43.0888 12.17C43.0299 12.208 43.0633 12.1689 43.1699 12.1689V13.1689V14.1689C43.9254 14.1689 44.5122 13.6449 44.9084 13.19L44.1543 12.5332ZM43.1699 13.1689V12.1689C43.2386 12.1689 43.2896 12.1769 43.3116 12.1808C43.3368 12.1852 43.3532 12.1895 43.3578 12.1908C43.3659 12.193 43.3579 12.1912 43.3275 12.1799C43.2677 12.1578 43.1711 12.1176 43.03 12.0535L42.6162 12.9639L42.2024 13.8742C42.3622 13.9468 42.5082 14.0092 42.6329 14.0554C42.6949 14.0784 42.7646 14.1022 42.836 14.1215C42.89 14.1361 43.0175 14.1689 43.1699 14.1689V13.1689ZM42.6162 12.9639L43.0008 12.0408C42.2948 11.7466 41.5553 11.5053 40.7831 11.3159L40.5449 12.2871L40.3067 13.2583C40.9838 13.4244 41.6251 13.6342 42.2316 13.8869L42.6162 12.9639ZM40.5449 12.2871L40.8049 11.3215C39.9781 11.0989 38.9732 11 37.8174 11V12V13C38.8764 13 39.6899 13.0925 40.285 13.2527L40.5449 12.2871ZM37.8174 12V11C35.4448 11 33.5179 11.7681 32.2429 13.4457L33.0391 14.0508L33.8352 14.6559C34.6384 13.5991 35.897 13 37.8174 13V12ZM33.0391 14.0508L32.242 13.4469C31.0257 15.0525 30.501 17.3614 30.501 20.2031H31.501H32.501C32.501 17.5487 33.0017 15.7561 33.8362 14.6546L33.0391 14.0508ZM31.501 20.2031H30.501C30.501 23.0503 31.0346 25.3729 32.2577 27.0145L33.0596 26.417L33.8615 25.8195C33.0064 24.672 32.501 22.8521 32.501 20.2031H31.501ZM33.0596 26.417L32.2577 27.0145C33.5234 28.7132 35.4108 29.5088 37.7354 29.5088V28.5088V27.5088C35.9037 27.5088 34.6739 26.9098 33.8615 25.8195L33.0596 26.417ZM37.7354 28.5088V29.5088C38.879 29.5088 39.9091 29.3934 40.8109 29.1447L40.5449 28.1807L40.279 27.2167C39.5948 27.4054 38.7519 27.5088 37.7354 27.5088V28.5088ZM40.5449 28.1807L40.8067 29.1458C41.6634 28.9135 42.4983 28.6158 43.311 28.253L42.9033 27.3398L42.4957 26.4267C41.7771 26.7475 41.0398 27.0104 40.2832 27.2155L40.5449 28.1807ZM42.9033 27.3398L43.2195 28.2885C43.2957 28.2631 43.4533 28.201 43.6439 28.1248L43.2725 27.1963L42.9011 26.2678C42.7998 26.3083 42.7211 26.3394 42.6639 26.3617C42.6352 26.3728 42.6137 26.3811 42.5983 26.3869C42.5802 26.3936 42.579 26.3938 42.5871 26.3912L42.9033 27.3398ZM43.2725 27.1963L43.6953 28.1025C43.7334 28.0847 43.765 28.071 43.7905 28.0607C43.8163 28.0503 43.8332 28.0444 43.8423 28.0415C43.852 28.0385 43.8479 28.0403 43.8325 28.0433C43.8243 28.0449 43.8113 28.0472 43.7939 28.049C43.7767 28.0509 43.7529 28.0527 43.7236 28.0527V27.0527V26.0527C43.3842 26.0527 43.0537 26.1948 42.8496 26.2901L43.2725 27.1963ZM43.7236 27.0527V28.0527C43.6916 28.0527 43.6857 28.0405 43.7196 28.0616C43.7616 28.0876 43.8444 28.1535 43.9583 28.3006L44.749 27.6885L45.5397 27.0763C45.1212 26.5356 44.5204 26.0527 43.7236 26.0527V27.0527ZM44.749 27.6885L43.9682 28.3132C44.2267 28.6364 44.4441 29.0168 44.6155 29.4625L45.5488 29.1035L46.4822 28.7445C46.2434 28.1238 45.9276 27.5609 45.5299 27.0638L44.749 27.6885ZM45.5488 29.1035L44.6187 29.4707C44.713 29.7096 44.7763 29.897 44.8148 30.0383C44.8562 30.19 44.8564 30.2439 44.8564 30.2314H45.8564H46.8564C46.8564 29.7891 46.6832 29.2538 46.479 28.7363L45.5488 29.1035ZM45.8564 30.2314H44.8564C44.8564 30.3531 44.804 30.6536 44.045 31.0446L44.5029 31.9336L44.9609 32.8226C46.0065 32.2839 46.8564 31.4496 46.8564 30.2314H45.8564ZM44.5029 31.9336L44.0394 31.0475C43.2613 31.4545 42.2824 31.7765 41.0829 31.9958L41.2627 32.9795L41.4425 33.9632C42.7859 33.7176 43.9672 33.3424 44.9664 32.8197L44.5029 31.9336ZM41.2627 32.9795L41.0914 31.9943C39.881 32.2048 38.7631 32.3076 37.7354 32.3076V33.3076V34.3076C38.8951 34.3076 40.1288 34.1917 41.434 33.9647L41.2627 32.9795Z" fill="black" mask="url(#path-2-outside-1_3_40)"/>
</svg>
