<svg width="33" height="33" viewBox="0 0 33 33" fill="none" xmlns="http://www.w3.org/2000/svg">
<path opacity="0.4" d="M16.3593 17.3208C16.2573 17.3062 16.126 17.3062 16.0093 17.3208C13.4427 17.2333 11.401 15.1333 11.401 12.5521C11.401 9.91247 13.5302 7.76872 16.1843 7.76872C18.8239 7.76872 20.9677 9.91247 20.9677 12.5521C20.9531 15.1333 18.926 17.2333 16.3593 17.3208Z" stroke="#292D32" stroke-width="3.2" stroke-linecap="round" stroke-linejoin="round"/>
<path opacity="0.34" d="M26.0121 26.946C23.4163 29.3231 19.9746 30.7668 16.183 30.7668C12.3913 30.7668 8.94959 29.3231 6.35376 26.946C6.49959 25.5751 7.37459 24.2335 8.93501 23.1835C12.9308 20.5293 19.4642 20.5293 23.4309 23.1835C24.9913 24.2335 25.8663 25.5751 26.0121 26.946Z" stroke="#292D32" stroke-width="3.2" stroke-linecap="round" stroke-linejoin="round"/>
<path d="M16.1833 30.7667C24.2374 30.7667 30.7666 24.2374 30.7666 16.1833C30.7666 8.12918 24.2374 1.6 16.1833 1.6C8.12915 1.6 1.59998 8.12918 1.59998 16.1833C1.59998 24.2374 8.12915 30.7667 16.1833 30.7667Z" stroke="#292D32" stroke-width="3.2" stroke-linecap="round" stroke-linejoin="round"/>
</svg>
