<svg width="32" height="34" viewBox="0 0 32 34" fill="none" xmlns="http://www.w3.org/2000/svg">
<path fill-rule="evenodd" clip-rule="evenodd" d="M28.6286 3.8147e-06H2.8595C0.77083 3.8147e-06 0 0.702789 0 2.60797V25.597C0 25.8125 0.00953605 26.0128 0.0304254 26.1984C0.0779778 26.6142 0.0869306 27.0172 0.51114 27.476C0.552594 27.5209 0.985691 27.8148 0.985691 27.8148C1.21865 27.9189 1.37772 27.9957 1.64046 28.0921L14.3295 32.939C14.9882 33.2144 15.2637 33.3217 15.7421 33.313V33.3131C15.7428 33.3131 15.7434 33.3131 15.744 33.3131C15.7447 33.3131 15.7452 33.3131 15.7459 33.3131V33.313C16.2243 33.3217 16.4998 33.2144 17.1586 32.939L29.8475 28.0921C30.1104 27.9957 30.2694 27.9189 30.5024 27.8148C30.5024 27.8148 30.9355 27.5209 30.9769 27.476C31.4011 27.0172 31.41 26.6142 31.4576 26.1984C31.4785 26.0128 31.4881 25.8125 31.4881 25.597V2.60797C31.4881 0.702789 30.7172 3.8147e-06 28.6286 3.8147e-06Z" fill="#2F2D2E"/>
<path d="M26.9029 23.1124L26.8971 23.1655L26.8913 23.2238L26.8796 23.2768L26.8622 23.3298L26.851 23.3775L26.8334 23.4306L26.8102 23.4783L26.7869 23.5208L26.764 23.5685L26.735 23.6109L26.7059 23.6533L26.6713 23.6958L26.6422 23.7382L26.6077 23.7752L26.5669 23.8124L26.5324 23.8442L26.4859 23.8814L26.4455 23.9132L26.399 23.945L26.3528 23.9711L26.3066 24.003L26.2543 24.0295L26.2022 24.0507L26.1503 24.0772L26.0921 24.0984L26.0343 24.1197L25.9765 24.1355L25.9187 24.1515L25.8663 24.1673L25.8085 24.178L25.7565 24.1886L25.7045 24.1992L25.6463 24.2098L25.5885 24.2151L25.5365 24.2204L25.4783 24.2257L25.4147 24.231L25.3569 24.2363H25.2991H25.2354H25.1714H25.1136L25.0558 24.231H24.9922L24.9343 24.2257L24.8762 24.2204L24.8126 24.2151L24.7548 24.2045L24.697 24.1992L24.6388 24.1886L24.5809 24.178L24.5231 24.1673L24.4653 24.1567L24.4072 24.1409L24.3551 24.1302L24.2973 24.1143L24.2395 24.0984L24.1872 24.0772L24.1294 24.0613L24.0774 24.0454L24.0195 24.0242L23.9672 24.003L23.9152 23.9817L23.8631 23.9556L23.8108 23.9344L23.7588 23.9078L23.7126 23.8814L23.6603 23.8548L23.6141 23.8283L23.5676 23.8018L23.5214 23.77L23.4752 23.7382L23.4287 23.7063L23.3824 23.6745L23.3417 23.6427L23.2956 23.6056L23.3305 23.5632L23.3708 23.5261L23.4057 23.4836L23.4461 23.4412L23.481 23.4041L23.5155 23.3617L23.5563 23.3192L23.5908 23.2821L23.6315 23.2397L23.6661 23.2026L23.7068 23.1602L23.7414 23.1177L23.7763 23.0806L23.8166 23.0382L23.8515 22.9958L23.8919 22.9587L23.9268 22.9163L23.973 22.9481L24.025 22.9799L24.0715 23.0117L24.1235 23.0435L24.1701 23.07L24.2221 23.1018L24.2682 23.1284L24.3206 23.1495L24.3668 23.1761L24.4188 23.1973L24.4711 23.2185L24.5231 23.2397L24.5752 23.2556L24.6275 23.2768L24.6853 23.2927L24.7431 23.3086L24.7951 23.3245L24.8533 23.3352L24.9111 23.3458L24.9689 23.3564L25.0326 23.3617L25.0907 23.3723H25.1485L25.2121 23.3775H25.27H25.3394L25.403 23.3723L25.4612 23.3617L25.5132 23.351L25.5652 23.3405L25.6117 23.3245L25.6522 23.3034L25.6987 23.2716L25.7332 23.2344L25.7565 23.1919L25.774 23.1443L25.7797 23.0912V23.0806L25.774 23.017L25.7507 22.9639L25.7216 22.9268L25.6812 22.895L25.6346 22.8632L25.5885 22.842L25.5365 22.8208L25.4783 22.7996L25.4089 22.7731L25.3685 22.7625L25.3223 22.7519L25.27 22.7359L25.218 22.7253L25.1602 22.7094L25.102 22.6988L25.0384 22.6829L24.9805 22.6723L24.9169 22.6564L24.8591 22.6458L24.8009 22.6299L24.7431 22.6193L24.6853 22.6034L24.6329 22.5875L24.5752 22.5769L24.5231 22.561L24.4711 22.5451L24.4188 22.5291L24.3551 22.5079L24.2973 22.4867L24.2395 22.4655L24.1813 22.4443L24.1294 22.4178L24.0715 22.3913L24.025 22.3648L23.973 22.3383L23.9268 22.3065L23.8803 22.28L23.8399 22.2481L23.7992 22.211L23.7588 22.1738L23.7239 22.1367L23.6894 22.0996L23.6603 22.0625L23.6315 22.0201L23.6025 21.9724L23.5792 21.9356L23.5617 21.8931L23.5447 21.8454L23.5272 21.803L23.5155 21.7499L23.5039 21.7022L23.4981 21.6492L23.4923 21.5962L23.4865 21.5379V21.4795V21.4689V21.4159L23.4923 21.3629L23.4981 21.3152L23.5039 21.2621L23.5155 21.2144L23.5272 21.1667L23.5447 21.1189L23.5563 21.0712L23.5792 21.0235L23.6025 20.9758L23.6257 20.9281L23.6545 20.8803L23.6835 20.8326L23.7181 20.7902L23.753 20.7478L23.7934 20.7053L23.8341 20.6683L23.8745 20.6258L23.921 20.5886L23.9614 20.5622L24.0079 20.5303L24.0541 20.4985L24.1003 20.472L24.1526 20.4455L24.2046 20.4243L24.2566 20.3978L24.309 20.3766L24.3668 20.3606L24.4246 20.3395L24.4769 20.3236L24.5231 20.3129L24.5752 20.3023L24.6275 20.2917L24.6853 20.2811L24.7373 20.2705L24.7951 20.2652L24.8533 20.2599L24.9111 20.2546L24.9689 20.2493H25.0267H25.0907H25.1544H25.218L25.2816 20.2546L25.3452 20.2599H25.403L25.467 20.2652L25.5248 20.2758L25.5885 20.2811L25.6463 20.2917L25.6987 20.3023L25.7565 20.3129L25.8143 20.3236L25.8663 20.3341L25.9244 20.3501L25.9765 20.366L26.0285 20.3766L26.0866 20.3978L26.1386 20.4137L26.1906 20.4349L26.2426 20.4561L26.3008 20.4773L26.3528 20.5038L26.399 20.5251L26.4513 20.5516L26.5034 20.5781L26.5496 20.6046L26.6018 20.6364L26.6481 20.6629L26.6946 20.6948L26.7408 20.7266L26.7869 20.7583L26.7524 20.8008L26.7234 20.8432L26.6888 20.8856L26.6539 20.9281L26.6194 20.9758L26.5902 21.0182L26.5553 21.0606L26.5208 21.1031L26.4918 21.1455L26.4571 21.1879L26.4223 21.2303L26.3931 21.2727L26.3586 21.3205L26.3237 21.3629L26.2892 21.4053L26.2601 21.4477L26.2255 21.4901L26.179 21.4583L26.127 21.4318L26.0808 21.4053L26.0343 21.3735L25.9823 21.3523L25.9357 21.3257L25.8838 21.3045L25.8376 21.2833L25.7852 21.2621L25.739 21.2409L25.6871 21.225L25.6405 21.2038L25.5768 21.1879L25.519 21.172L25.4612 21.1561L25.403 21.1455L25.3452 21.1349L25.2874 21.1242L25.2296 21.1189L25.1714 21.1136L25.1195 21.1083H25.0616H24.9922L24.9286 21.1189L24.8704 21.1295L24.8184 21.1401L24.7722 21.1614L24.7315 21.1825L24.6794 21.225L24.6445 21.2727L24.6217 21.3205L24.6158 21.3735V21.3841L24.6217 21.453L24.6504 21.5113L24.6737 21.5432L24.714 21.5803L24.7664 21.6068L24.8126 21.6333L24.8704 21.6545L24.9343 21.6758L25.0038 21.6969L25.05 21.7075L25.0962 21.7234L25.1485 21.734L25.2005 21.7499L25.2583 21.7606L25.3223 21.7765L25.386 21.7923L25.4496 21.8083L25.5132 21.8189L25.571 21.8348L25.6346 21.8507L25.6928 21.8613L25.7507 21.8772L25.8085 21.8931L25.8605 21.909L25.9187 21.925L25.9707 21.9409L26.0227 21.9568L26.0866 21.9777L26.1444 22.0042L26.2022 22.0254L26.2601 22.0519L26.3124 22.0784L26.3645 22.1049L26.4106 22.1314L26.4571 22.1633L26.5034 22.1898L26.5496 22.2269L26.5961 22.264L26.6364 22.3065L26.6771 22.3435L26.7117 22.386L26.7466 22.4337L26.7753 22.4761L26.8044 22.5239L26.8277 22.5663L26.8451 22.614L26.8622 22.6617L26.8739 22.7094L26.8855 22.7625L26.8971 22.8155L26.9029 22.8685L26.9088 22.9268V22.9852V22.9958V23.0541L26.9029 23.1124ZM22.8422 24.1727H22.7841H22.7263H22.6685H22.6107H22.5525H22.4946H22.4369H22.379H22.3151H22.2573H22.1994H22.1416H22.0834H22.0257H21.9678H21.91H21.8518H21.794H21.7362H21.6784H21.6205H21.5624H21.5046H21.4468H21.3889H21.3307H21.2729H21.2151H21.1515H21.0934H21.0355H20.9777H20.9199H20.8618H20.8039H20.7461H20.6882H20.6301H20.5723H20.5145H20.4566H20.3984H20.3407H20.2828H20.225H20.1669H20.109H20.0454H19.9876H19.9298H19.8716H19.8138H19.7559H19.6982H19.6401H19.5822H19.5244V24.1197V24.0666V24.0136V23.9609V23.9078V23.8548V23.8018V23.7488V23.6958V23.6427V23.5897V23.5367V23.4836V23.4306V23.3775V23.3245V23.2716V23.2185V23.1708V23.1177V23.0647V23.0117V22.9587V22.9056V22.8526V22.7996V22.7465V22.6935V22.6405V22.5875V22.5345V22.4814V22.4284V22.3754V22.3223V22.2693V22.2163V22.1633V22.1103V22.0572V22.0042V21.9515V21.8985V21.8454V21.7923V21.7394V21.6864V21.6333V21.5803V21.5273V21.4742V21.4212V21.3681V21.3152V21.2674V21.2144V21.1614V21.1083V21.0553V21.0023V20.9493V20.8962V20.8432V20.7902V20.7372V20.6841V20.6311V20.5781V20.5251V20.472V20.419V20.366V20.3129H19.5822H19.6401H19.6982H19.7559H19.8138H19.8716H19.9298H19.9876H20.0454H20.1033H20.1614H20.2192H20.277H20.3349H20.3871H20.445H20.5028H20.5607H20.6188H20.6766H20.7344H20.7923H20.8504H20.9082H20.966H21.0239H21.0821H21.1399H21.1977H21.2555H21.3137H21.3715H21.4293H21.4871H21.5449H21.6031H21.6609H21.7187H21.7765H21.8347H21.8925H21.9503H22.0081H22.0606H22.1184H22.1762H22.234H22.2922H22.35H22.4078H22.4656H22.5238H22.5816H22.6394H22.6972H22.7554H22.8132H22.871V20.366V20.4137V20.4667V20.5197V20.5727V20.6205V20.6735V20.7266V20.7743V20.8273V20.8803V20.9281V20.9811V21.0341V21.0871V21.1349V21.1879H22.8132H22.7554H22.6972H22.6394H22.5816H22.5238H22.4714H22.4136H22.3558H22.2979H22.2398H22.182H22.1241H22.0663H22.0081H21.9503H21.8925H21.8347H21.7765H21.7246H21.6667H21.6089H21.5507H21.493H21.4351H21.3773H21.3191H21.2613H21.2035H21.1457H21.0875H21.0296H20.9777H20.9199H20.8618H20.8039H20.7461H20.6882H20.6301V21.2409V21.2939V21.3469V21.4V21.453V21.5008V21.5537V21.6068V21.6598V21.7129V21.7659V21.8189H20.6882H20.7461H20.8039H20.8618H20.9199H20.9777H21.0355H21.0934H21.1457H21.2035H21.2613H21.3191H21.3773H21.4351H21.493H21.5507H21.6089H21.6667H21.7246H21.7824H21.8405H21.8983H21.9562H22.014H22.0722H22.13H22.182H22.2398H22.2979H22.3558H22.4136H22.4714H22.5295H22.5874H22.6452V21.8719V21.9196V21.9724V22.0254V22.0731V22.1261V22.1792V22.2269V22.28V22.333V22.386V22.4337V22.4867V22.5397V22.5875V22.6405H22.5874H22.5295H22.4714H22.4136H22.3558H22.2979H22.2398H22.182H22.13H22.0722H22.014H21.9562H21.8983H21.8405H21.7824H21.7246H21.6667H21.6089H21.5507H21.493H21.4351H21.3773H21.3191H21.2613H21.2035H21.1457H21.0934H21.0355H20.9777H20.9199H20.8618H20.8039H20.7461H20.6882H20.6301V22.6935V22.7519V22.8049V22.8579V22.9163V22.9693V23.0223V23.0806V23.1336V23.1867V23.245V23.298H20.6882H20.7461H20.8039H20.8618H20.9199H20.9777H21.0355H21.0934H21.1515H21.2151H21.2729H21.3307H21.3889H21.4468H21.5046H21.5624H21.6205H21.6784H21.7362H21.794H21.8518H21.91H21.9678H22.0257H22.0834H22.1416H22.1994H22.2573H22.3151H22.379H22.4369H22.4946H22.5525H22.6107H22.6685H22.7263H22.7841H22.8422H22.9001V23.351V23.3988V23.4518V23.5048V23.5579V23.6056V23.6586V23.7116V23.7594V23.8124V23.8654V23.9132V23.9659V24.0189V24.0719V24.1197V24.1727H22.8422ZM18.6115 24.1727H18.5537H18.4959H18.432H18.3742H18.3163H18.2585H18.2003H18.1425H18.0789H18.0211H17.9632H17.9051H17.8473H17.7895H17.7258H17.6676H17.6098H17.552V24.1197V24.0666V24.0136V23.9606V23.9072V23.8542V23.8012V23.7481V23.6951V23.6421V23.5891V23.5358V23.4827V23.4297V23.3767V23.3236V23.2703V23.2172V23.1642V23.1112V23.0582V23.0052V22.9518V22.8988V22.8458V22.7927V22.7397V22.6867V22.6333V22.5802V22.5272V22.4743V22.4213V22.3682V22.3149V22.2619V22.2088V22.1558V22.1028V22.0494V21.9964V21.9434V21.8903L17.523 21.9327L17.4884 21.9808L17.4593 22.0232L17.4247 22.0657L17.3957 22.1133L17.3607 22.1558L17.332 22.1982L17.3029 22.2462L17.2684 22.2887L17.2393 22.3311L17.2044 22.3735L17.1757 22.4216L17.1408 22.464L17.1121 22.5064L17.0829 22.5541L17.048 22.5968L17.0193 22.6393L16.9844 22.6869L16.9557 22.7294L16.9208 22.7718L16.8921 22.8198L16.8629 22.8623L16.8281 22.9047L16.7994 22.9525L16.7645 22.9952L16.7357 23.0376L16.7008 23.08L16.6717 23.1277L16.643 23.1704L16.6081 23.2129L16.5794 23.2606L16.5445 23.303L16.5154 23.3454L16.4808 23.3935L16.4518 23.4359H16.4288L16.394 23.3882L16.3648 23.3454L16.3303 23.2977L16.3012 23.2553L16.2666 23.2076L16.2376 23.1649L16.203 23.1171L16.1739 23.0747L16.139 23.027L16.1103 22.9846L16.0754 22.9365L16.0467 22.8941L16.0118 22.8463L15.9827 22.8039L15.9482 22.7559L15.919 22.7135L15.8845 22.6658L15.8496 22.6234L15.8205 22.5753L15.786 22.5329L15.7569 22.4852L15.7223 22.4428L15.6933 22.3947L15.6587 22.3523L15.6296 22.3046L15.5947 22.2622L15.566 22.2144L15.5311 22.1717L15.5023 22.124L15.4674 22.0815L15.4384 22.0338L15.4039 21.9914L15.3747 21.9434L15.3402 21.9009V21.9539V22.007V22.06V22.1133V22.1664V22.2194V22.2724V22.3255V22.3788V22.4318V22.4796V22.5326V22.5856V22.6386V22.692V22.745V22.798V22.851V22.9041V22.9571V23.0104V23.0635V23.1165V23.1695V23.2226V23.2756V23.3289V23.3819V23.435V23.488V23.541V23.5943V23.6421V23.6951V23.7481V23.8012V23.8542V23.9072V23.9606V24.0136V24.0666V24.1197V24.1727H15.2824H15.2242H15.1664H15.1086H15.0508H14.9926H14.9348H14.877H14.8191H14.761H14.7032H14.6453H14.5875H14.5294H14.4716H14.4137H14.3558H14.2977H14.2399V24.1197V24.0666V24.0136V23.9609V23.9078V23.8548V23.8018V23.7488V23.6958V23.6427V23.5897V23.5367V23.4836V23.4306V23.3775V23.3245V23.2716V23.2185V23.1708V23.1177V23.0647V23.0117V22.9587V22.9056V22.8526V22.7996V22.7465V22.6935V22.6405V22.5875V22.5345V22.4814V22.4284V22.3754V22.3223V22.2693V22.2163V22.1633V22.1103V22.0572V22.0042V21.9515V21.8985V21.8454V21.7923V21.7394V21.6864V21.6333V21.5803V21.5273V21.4742V21.4212V21.3681V21.3152V21.2674V21.2144V21.1614V21.1083V21.0553V21.0023V20.9493V20.8962V20.8432V20.7902V20.7372V20.6841V20.6311V20.5781V20.5251V20.472V20.419V20.366V20.3129H14.2977H14.3558H14.4079H14.4657H14.5235H14.5817H14.6337H14.6915H14.7497H14.8075H14.8595H14.9173H14.9755H15.0333H15.0853H15.1431H15.2013H15.2591H15.3111H15.3689H15.4271L15.4558 20.3554L15.4849 20.403L15.5194 20.4452L15.5485 20.4929L15.5776 20.5353L15.6063 20.5831L15.6354 20.6251L15.67 20.6729L15.699 20.7153L15.7282 20.7578L15.7569 20.8051L15.786 20.8476L15.8205 20.8953L15.8496 20.9377L15.8787 20.9851L15.9074 21.0275L15.9423 21.0699L15.9714 21.1174L16.0001 21.1598L16.0292 21.2075L16.058 21.25L16.0929 21.2973L16.122 21.3398L16.1506 21.3875L16.1798 21.4296L16.2085 21.472L16.2434 21.5197L16.2725 21.5622L16.3012 21.6099L16.3303 21.6521L16.359 21.6998L16.394 21.7422L16.423 21.7896L16.4518 21.832L16.4808 21.7896L16.5099 21.7422L16.5445 21.6998L16.5735 21.6521L16.6023 21.6099L16.6313 21.5622L16.6659 21.5197L16.695 21.472L16.7241 21.4296L16.7528 21.3875L16.7877 21.3398L16.8164 21.2973L16.8456 21.25L16.8746 21.2075L16.9091 21.1598L16.9382 21.1174L16.9673 21.0699L16.996 21.0275L17.0252 20.9851L17.0597 20.9377L17.0888 20.8953L17.1178 20.8476L17.1466 20.8051L17.1815 20.7578L17.2103 20.7153L17.2393 20.6729L17.2684 20.6251L17.3029 20.5831L17.332 20.5353L17.3607 20.4929L17.3898 20.4452L17.4247 20.403L17.4535 20.3554L17.4825 20.3129H17.5403H17.5982H17.6505H17.7084H17.7662H17.824H17.8763H17.9342H17.9919H18.0498H18.1022H18.16H18.2178H18.2756H18.3279H18.3858H18.4436H18.5014H18.5537H18.6115H18.6693V20.366V20.419V20.472V20.5251V20.5781V20.6311V20.6841V20.7372V20.7902V20.8432V20.8962V20.9493V21.0023V21.0553V21.1083V21.1614V21.2144V21.2674V21.3152V21.3681V21.4212V21.4742V21.5273V21.5803V21.6333V21.6864V21.7394V21.7923V21.8454V21.8985V21.9515V22.0042V22.0572V22.1103V22.1633V22.2163V22.2693V22.3223V22.3754V22.4284V22.4814V22.5345V22.5875V22.6405V22.6935V22.7465V22.7996V22.8526V22.9056V22.9587V23.0117V23.0647V23.1177V23.1708V23.2185V23.2716V23.3245V23.3775V23.4306V23.4836V23.5367V23.5897V23.6427V23.6958V23.7488V23.8018V23.8548V23.9078V23.9609V24.0136V24.0666V24.1197V24.1727H18.6115ZM11.8933 22.5822L11.8758 22.5342L11.8529 22.4811L11.8296 22.4334L11.8122 22.3854L11.7893 22.3376L11.7661 22.2846L11.7486 22.2365L11.7253 22.1888L11.7024 22.1411L11.6849 22.0931L11.6616 22.0401L11.6446 21.9923L11.6213 21.9443L11.598 21.8966L11.5806 21.8488L11.5576 21.7955L11.5344 21.7478L11.517 21.7001L11.4937 21.6521L11.4708 21.599L11.4533 21.551L11.43 21.5032L11.4071 21.551L11.3897 21.599L11.3664 21.6521L11.3432 21.7001L11.326 21.7478L11.3028 21.7955L11.2795 21.8488L11.2566 21.8966L11.2391 21.9443L11.2159 21.9923L11.1926 22.0401L11.1755 22.0931L11.1522 22.1411L11.1289 22.1888L11.1116 22.2365L11.0886 22.2846L11.0653 22.3376L11.0421 22.3854L11.025 22.4334L11.0017 22.4811L10.9784 22.5342L10.961 22.5822L10.9381 22.6299H10.9959H11.0537H11.1116H11.1697H11.2275H11.2853H11.3432H11.4014H11.4533H11.5111H11.5693H11.6271H11.6849H11.7428H11.8006H11.8587H11.9165L11.8933 22.5822ZM13.7117 24.1727H13.6536H13.6015H13.5437H13.4855H13.4277H13.3699H13.3179H13.2597H13.2019H13.1441H13.0863H13.0281H12.9761H12.9183H12.8604H12.8023H12.7445H12.6925H12.6347H12.5765L12.5536 24.1249L12.5361 24.0772L12.5129 24.0295L12.4896 23.9765L12.4725 23.929L12.4493 23.8814L12.426 23.8336L12.4088 23.7859L12.3856 23.7382L12.3623 23.6904L12.3449 23.6427L12.322 23.5897L12.2987 23.542L12.2812 23.4942L12.2579 23.4465H12.2001H12.1423H12.0845H12.0267H11.9744H11.9165H11.8587H11.8006H11.7428H11.6849H11.6271H11.5693H11.5111H11.4533H11.4014H11.3432H11.2853H11.2275H11.1697H11.1116H11.0537H10.9959H10.9381H10.8803H10.8279H10.7701H10.7123H10.6541H10.5963L10.5734 23.4942L10.5559 23.542L10.5326 23.5897L10.5094 23.6427L10.4923 23.6904L10.4691 23.7382L10.4458 23.7859L10.4283 23.8336L10.4054 23.8814L10.3821 23.929L10.3647 23.9765L10.3417 24.0295L10.3185 24.0772L10.301 24.1249L10.2777 24.1727H10.2199H10.1621H10.1043H10.0461H9.98834H9.9247H9.86689H9.80903H9.7509H9.6931H9.6353H9.57743H9.51924H9.4615H9.4037H9.34006H9.28186H9.22406H9.16619H9.10839L9.13129 24.1249L9.15458 24.0772L9.17781 24.0295L9.20077 23.9765L9.21822 23.929L9.24151 23.8814L9.26474 23.8336L9.28764 23.7859L9.31093 23.7382L9.33422 23.6851L9.35712 23.6374L9.38041 23.5897L9.39779 23.542L9.42108 23.4942L9.44398 23.4465L9.46727 23.3935L9.4905 23.3458L9.51346 23.298L9.53675 23.2503L9.55998 23.2026L9.57743 23.1549L9.60033 23.1018L9.62362 23.0541L9.64691 23.0064L9.66981 22.9587L9.6931 22.9109L9.71639 22.8632L9.73929 22.8101L9.75674 22.7625L9.78003 22.7147L9.80325 22.667L9.82622 22.6193L9.84944 22.5716L9.87267 22.5186L9.89563 22.4708L9.91886 22.4231L9.93631 22.3754L9.9596 22.3277L9.9825 22.28L10.0058 22.2269L10.0291 22.1792L10.052 22.1314L10.0752 22.0837L10.0985 22.036L10.1159 21.9882L10.1389 21.9409L10.1621 21.8878L10.1854 21.8401L10.2083 21.7923L10.2316 21.7446L10.2548 21.6969L10.2777 21.6492L10.2952 21.5962L10.3185 21.5485L10.3417 21.5008L10.3647 21.453L10.388 21.4053L10.4112 21.3576L10.4342 21.3045L10.4574 21.2568L10.4748 21.2091L10.4981 21.1614L10.521 21.1136L10.5442 21.0659L10.5675 21.0129L10.5904 20.9652L10.6137 20.9174L10.637 20.8697L10.6541 20.822L10.6774 20.7743L10.7007 20.7213L10.7239 20.6735L10.7468 20.6258L10.7701 20.5781L10.7934 20.5303L10.8163 20.4827L10.8338 20.4296L10.857 20.3819L10.8803 20.3341L10.9032 20.2864H10.961H11.0133H11.0711H11.1289H11.1871H11.2391H11.2969H11.3548H11.413H11.465H11.5227H11.5806H11.6387H11.6908H11.7486H11.8064H11.8646H11.9165H11.9744L11.9976 20.3341L12.0209 20.3819L12.0439 20.4296L12.0671 20.4827L12.0845 20.5303L12.1074 20.5781L12.1307 20.6258L12.154 20.6735L12.1772 20.7213L12.2001 20.7743L12.2234 20.822L12.2467 20.8697L12.2638 20.9174L12.2871 20.9652L12.3104 21.0129L12.3337 21.0659L12.3566 21.1136L12.3798 21.1614L12.4031 21.2091L12.426 21.2568L12.4434 21.3045L12.4666 21.3576L12.4896 21.4053L12.5129 21.453L12.5361 21.5008L12.5594 21.5485L12.5823 21.5962L12.6055 21.6492L12.6231 21.6969L12.646 21.7446L12.6692 21.7923L12.6925 21.8401L12.7158 21.8878L12.7387 21.9409L12.7619 21.9882L12.7852 22.036L12.8023 22.0837L12.8255 22.1314L12.8488 22.1792L12.8718 22.2269L12.895 22.28L12.9183 22.3277L12.9416 22.3754L12.9645 22.4231L12.9819 22.4708L13.0052 22.5186L13.0281 22.5716L13.0513 22.6193L13.0746 22.667L13.0979 22.7147L13.1208 22.7625L13.1441 22.8101L13.1615 22.8632L13.1845 22.9109L13.2077 22.9587L13.231 23.0064L13.2539 23.0541L13.2772 23.1018L13.3005 23.1549L13.3238 23.2026L13.3408 23.2503L13.3641 23.298L13.3874 23.3458L13.4103 23.3935L13.4335 23.4465L13.4568 23.4942L13.48 23.542L13.5029 23.5897L13.5205 23.6374L13.5437 23.6851L13.5666 23.7382L13.5899 23.7859L13.6131 23.8336L13.6361 23.8814L13.6593 23.929L13.6826 23.9765L13.7001 24.0295L13.7229 24.0772L13.7462 24.1249L13.7694 24.1727H13.7117ZM8.63903 23.6798L8.59251 23.7116L8.5521 23.7382L8.50558 23.77L8.45939 23.7965L8.41321 23.8283L8.36669 23.8548L8.3205 23.8814L8.26815 23.9078L8.21612 23.9344L8.16409 23.9609L8.1118 23.9817L8.05977 24.0083L8.00197 24.0295L7.95001 24.0507L7.89181 24.0719L7.83985 24.0931L7.78776 24.109L7.73547 24.1249L7.68344 24.1409L7.62564 24.1567L7.57367 24.1727L7.51548 24.1833L7.46345 24.1939L7.40565 24.2045L7.34753 24.2151L7.28966 24.2204L7.22602 24.2257L7.16821 24.231L7.10457 24.2363L7.04638 24.2416L6.9828 24.2469H6.91916H6.85546H6.79188H6.73369L6.67589 24.2416L6.61225 24.2363L6.55444 24.231L6.49664 24.2257L6.43845 24.2204L6.38065 24.2098L6.32278 24.1992L6.27082 24.1886L6.21269 24.178L6.16066 24.1621L6.10286 24.1515L6.0505 24.1355L5.99848 24.1143L5.94645 24.0984L5.88871 24.0772L5.83636 24.056L5.78433 24.0348L5.73236 24.0136L5.67995 23.9871L5.63382 23.9609L5.58179 23.9344L5.53528 23.9078L5.48909 23.8814L5.44257 23.8495L5.39638 23.8177L5.35013 23.7859L5.30945 23.7541L5.2691 23.7223L5.22836 23.6851L5.18801 23.6533L5.14727 23.6162L5.10692 23.5791L5.07201 23.542L5.03744 23.4996L5.00254 23.4624L4.97347 23.42L4.93889 23.3775L4.9099 23.3352L4.88109 23.2927L4.85203 23.245L4.82296 23.2026L4.80006 23.1549L4.77677 23.1071L4.75355 23.0594L4.73058 23.0117L4.71313 22.9693L4.68984 22.9215L4.67823 22.8738L4.6611 22.8261L4.64949 22.7731L4.63204 22.7253L4.62043 22.6723L4.61459 22.6246L4.60291 22.5716L4.5972 22.5239L4.5913 22.4708L4.58585 22.4178L4.58008 22.3648V22.3065V22.2534V22.2428V22.1898L4.58585 22.1314V22.0784L4.5913 22.0254L4.5972 21.9671L4.60882 21.9144L4.61459 21.8613L4.6262 21.8136L4.64365 21.7606L4.65533 21.7075L4.67239 21.6598L4.68984 21.6068L4.7073 21.5591L4.73058 21.506L4.75355 21.4583L4.77677 21.4106L4.80006 21.3629L4.82296 21.3152L4.85203 21.2674L4.88109 21.225L4.9099 21.1825L4.93889 21.1401L4.96802 21.0977L5.00254 21.0553L5.03744 21.0129L5.07201 20.9705L5.10692 20.9333L5.14727 20.8962L5.18217 20.8591L5.22259 20.822L5.26326 20.7848L5.30361 20.7531L5.35013 20.7159L5.39054 20.6841L5.43673 20.6523L5.48325 20.6258L5.52944 20.594L5.57602 20.5675L5.62214 20.541L5.67417 20.5144L5.72653 20.4879L5.77849 20.4614L5.83052 20.4402L5.88281 20.419L5.94067 20.3925L5.98686 20.3766L6.04467 20.3606L6.09708 20.3395L6.14905 20.3288L6.20101 20.3129L6.25914 20.3023L6.31117 20.2864L6.36897 20.2758L6.42684 20.2705L6.48496 20.2599L6.54283 20.2546L6.60057 20.2493L6.65844 20.244L6.71663 20.2387H6.78027H6.83807H6.90165H6.96529L7.02932 20.244L7.09296 20.2493H7.15076L7.20857 20.2546L7.27221 20.2652L7.32456 20.2705L7.38236 20.2811L7.44023 20.2917L7.49252 20.3023L7.54448 20.3129L7.59657 20.3236L7.64893 20.3395L7.70089 20.3501L7.74708 20.366L7.79944 20.3819L7.85146 20.403L7.90343 20.4243L7.95578 20.4455L8.00781 20.472L8.05977 20.4932L8.10635 20.5197L8.15832 20.5462L8.20451 20.5727L8.25686 20.5993L8.30305 20.6311L8.34924 20.6576L8.39575 20.6894L8.44194 20.7213L8.48846 20.7583L8.53465 20.7902L8.49975 20.8326L8.45939 20.8697L8.42449 20.9121L8.38414 20.9545L8.34924 20.997L8.31466 21.0341L8.27392 21.0765L8.23941 21.1189L8.20451 21.1561L8.16409 21.1985L8.12925 21.2409L8.08884 21.2833L8.05393 21.3205L8.01942 21.3629L7.97874 21.4053L7.9441 21.4477L7.90343 21.4848L7.86885 21.5273L7.82234 21.4954L7.77615 21.4583L7.72963 21.4318L7.68344 21.4L7.63725 21.3735L7.59074 21.3469L7.54448 21.3205L7.49252 21.2939L7.446 21.2727L7.39981 21.2515L7.3533 21.2356L7.30127 21.2197L7.24931 21.2038L7.19695 21.1932L7.13915 21.1825L7.08135 21.172L7.02348 21.1667L6.95984 21.1614L6.89587 21.1561H6.83223H6.77443L6.71663 21.1614L6.66427 21.1667L6.60647 21.1773L6.55444 21.1879L6.50209 21.2038L6.45013 21.2197L6.3981 21.2409L6.34607 21.2621L6.29955 21.2886L6.25343 21.3152L6.20685 21.3417L6.1665 21.3735L6.12576 21.4053L6.08541 21.4371L6.0505 21.4742L6.01015 21.5113L5.97525 21.5537L5.94645 21.5909L5.91738 21.6333L5.88871 21.681L5.85958 21.7234L5.83636 21.7712L5.8189 21.8189L5.79594 21.8666L5.77849 21.9196L5.76688 21.9724L5.75526 22.0201L5.74359 22.0784L5.73781 22.1314L5.73236 22.1844V22.2428V22.2534V22.3065L5.73781 22.3594L5.74359 22.4072L5.74943 22.4602L5.76104 22.5079L5.77271 22.5557L5.78433 22.6034L5.80178 22.6511L5.8189 22.6935L5.8422 22.7465L5.86542 22.7943L5.89416 22.842L5.92322 22.8844L5.95229 22.9268L5.98686 22.9693L6.02177 23.0064L6.06212 23.0435L6.09708 23.0806L6.13737 23.1124L6.18395 23.1443L6.23014 23.1761L6.27627 23.2026L6.32278 23.2291L6.37487 23.2503L6.42684 23.2716L6.47912 23.2927L6.53699 23.3086L6.5948 23.3245L6.65299 23.3352L6.71079 23.3458L6.76859 23.351L6.83223 23.3564H6.89587H6.96529L7.02932 23.351L7.09296 23.3458L7.15076 23.3405L7.20857 23.3298L7.26676 23.3192L7.32456 23.3034L7.37652 23.2927L7.42862 23.2716L7.47513 23.2503L7.52709 23.2291L7.56777 23.2079L7.61403 23.1814V23.1284V23.0754V23.0223V22.9693V22.9109V22.8579V22.8049V22.7519V22.6988H7.55616H7.50387H7.446H7.3882H7.3304H7.27804H7.22018H7.16238H7.10457H7.05228H6.99442H6.93661H6.87875H6.82646H6.76859V22.6458V22.5981V22.5451V22.4921V22.439V22.3913V22.3383V22.2852V22.2322V22.1844V22.1314V22.0784V22.0254V21.9777V21.925H6.82646H6.88459H6.94245H7.00019H7.05806H7.11586H7.17405H7.23185H7.28966H7.34753H7.40565H7.46345H7.52126H7.57906H7.63725H7.69512H7.75292H7.81072H7.86885H7.92672H7.98452H8.04232H8.10045H8.15832H8.21612H8.27392H8.33211H8.38992H8.44778H8.50558H8.56371H8.62151H8.67938V21.9777V22.0307V22.0837V22.1314V22.1844V22.2375V22.2905V22.3435V22.3966V22.4443V22.4973V22.5504V22.6034V22.6564V22.7094V22.7625V22.8101V22.8632V22.9163V22.9693V23.0223V23.0754V23.1284V23.1761V23.2291V23.2821V23.3352V23.3882V23.4412V23.489V23.542V23.595V23.648L8.63903 23.6798Z" fill="white"/>
<path d="M6.77654 11.5797H9.28605V9.8099H6.77654V6.19685H9.38596V4.42705H4.64551V17.1999H9.42566V15.43H6.77654V11.5797Z" fill="white"/>
<path d="M24.7512 11.9631V14.8462C24.7512 15.3571 24.4922 15.5942 23.9547 15.5942H23.5561C22.9985 15.5942 22.7395 15.3571 22.7395 14.8462V6.78076C22.7395 6.26985 22.9985 6.03279 23.5561 6.03279H23.9147C24.4525 6.03279 24.7115 6.26985 24.7115 6.78076V9.28084H26.8026V6.67128C26.8026 5.08395 25.9661 4.31753 24.2336 4.31753H23.1976C21.4651 4.31753 20.6084 5.10205 20.6084 6.68967V14.9372C20.6084 16.5249 21.4651 17.3094 23.1976 17.3094H24.2534C25.9863 17.3094 26.8426 16.5249 26.8426 14.9372V11.9631H24.7512Z" fill="white"/>
<path d="M17.3511 17.1999H19.4824V4.42699H17.3511V17.1999Z" fill="white"/>
<path d="M14.2589 10.1018C14.2589 10.6127 14.0002 10.8501 13.4624 10.8501H12.5859V6.14223H13.4624C14.0002 6.14223 14.2589 6.37934 14.2589 6.8902V10.1018ZM13.8008 4.42696H10.4548V17.1999H12.5859V12.565H13.8008C15.5337 12.565 16.39 11.7805 16.39 10.1932V6.79911C16.39 5.21149 15.5337 4.42696 13.8008 4.42696Z" fill="white"/>
<path fill-rule="evenodd" clip-rule="evenodd" d="M9.67334 28.7491H21.8731L15.6461 30.6213L9.67334 28.7491Z" fill="white"/>
</svg>
