<svg width="34" height="31" viewBox="0 0 34 31" fill="none" xmlns="http://www.w3.org/2000/svg">
<path d="M10.0585 19.6223H6.13366C5.82655 19.6223 5.57327 19.8633 5.57327 20.1614V22.8387C5.57327 23.1208 5.82655 23.3717 6.13366 23.3717H10.0753V25.1385H5.15008C4.36491 25.1385 3.71587 24.5211 3.71587 23.7582V19.2248C3.71587 18.4729 4.36491 17.8606 5.16697 17.8606H10.0585V19.6223ZM11.4821 14.6713C11.4821 15.4503 10.8225 16.0777 10.0036 16.0777H3.70004V14.2678H9.02001C9.33344 14.2678 9.58145 14.0319 9.58145 13.7347V7.77988C9.58145 7.48173 9.33344 7.24081 9.02001 7.24081H6.17903C5.85927 7.23579 5.60071 7.47671 5.60071 7.77988V10.4822C5.60071 10.7914 5.85399 11.0163 6.16215 11.0163H8.44274V12.8242H5.17857C4.36491 12.8242 3.70004 12.2069 3.70004 11.4339V6.82822C3.70004 6.06429 4.36596 5.43789 5.17857 5.43789H9.99408C10.8078 5.43789 11.4663 6.06429 11.4663 6.82822V14.6703L11.4821 14.6713ZM30.055 25.1385H28.1976V19.6223H26.889C26.5819 19.6223 26.3286 19.8633 26.3286 20.1614V25.1375H24.4543V19.6213H23.1457C22.8376 19.6213 22.5853 19.8622 22.5853 20.1604V25.1365H20.711V19.2228C20.711 18.4709 21.3601 17.8586 22.1621 17.8586H30.055V25.1385ZM30.0719 14.6713C30.0719 15.4503 29.406 16.0777 28.5934 16.0777H22.2898V14.2678H27.6098C27.918 14.2678 28.1712 14.0319 28.1712 13.7347V7.77988C28.1712 7.48173 27.918 7.24081 27.6098 7.24081H24.7519C24.4385 7.24081 24.1905 7.48173 24.1905 7.77988V10.4822C24.1905 10.7914 24.4438 11.0163 24.7519 11.0163H27.0325V12.8242H23.7779C22.9642 12.8242 22.3057 12.2069 22.3057 11.4339V6.82822C22.3057 6.06429 22.9642 5.43789 23.7779 5.43789H28.6039C29.4229 5.43789 30.0825 6.06429 30.0825 6.82822V14.6703L30.0719 14.6713ZM19.3043 5.43889H14.4666C13.6477 5.43889 12.9986 6.0653 12.9986 6.82923V11.4349C12.9986 12.2089 13.6477 12.8252 14.4666 12.8252H19.3043C20.1063 12.8252 20.7723 12.2079 20.7723 11.4349V6.82923C20.7723 6.0653 20.1063 5.43889 19.3043 5.43889ZM18.8864 7.78088V10.4833C18.8864 10.7814 18.6331 11.0173 18.3207 11.0173H15.4618C15.1547 11.0173 14.9014 10.7814 14.9014 10.4833V7.78991C14.9014 7.49779 15.1431 7.25687 15.4618 7.25687H18.2933C18.6173 7.25687 18.8537 7.49779 18.8537 7.78991L18.8864 7.78088ZM17.7709 17.8616H12.9997C12.2029 17.8616 11.5549 18.4729 11.5549 19.2258V23.7592C11.5549 24.5221 12.204 25.1395 12.9997 25.1395H17.7709C18.5729 25.1395 19.222 24.5221 19.222 23.7592V19.2258C19.222 18.4739 18.5729 17.8616 17.7709 17.8616ZM17.3466 20.1624V22.8397C17.3466 23.1318 17.0986 23.3727 16.7862 23.3727V23.3617H13.9875C13.6751 23.3617 13.4218 23.1218 13.4218 22.8236V20.1624C13.4218 19.8693 13.6751 19.6233 13.9875 19.6233H16.8021C17.1102 19.6233 17.3635 19.8693 17.3635 20.1624H17.3466ZM33.0501 0.701711C32.5942 0.251985 31.962 0.00604104 31.3077 1.79198e-05H2.46213C1.09863 -0.00500134 -0.00630495 1.04503 2.70797e-05 2.34201V28.2334C-0.00524961 29.5304 1.09863 30.5814 2.46213 30.5754H31.3077C32.6712 30.5804 33.7761 29.5304 33.7698 28.2334V2.34201C33.7698 1.70456 33.4901 1.11329 33.049 0.684645L33.0501 0.701711ZM33.0501 28.2344C33.0617 29.1489 32.2765 29.8968 31.3077 29.8917H2.46213C1.49017 29.9078 0.697606 29.1539 0.702883 28.2344V2.34301C0.697606 1.4285 1.48383 0.68063 2.44525 0.685649H31.2908C32.2586 0.685649 33.0385 1.4285 33.0385 2.34301V28.2344H33.0501Z" fill="black"/>
</svg>
