<svg width="31" height="31" viewBox="0 0 31 31" fill="none" xmlns="http://www.w3.org/2000/svg">
<path d="M0.633024 19.9596C2.54847 26.3463 8.47259 31.0037 15.4828 31.0037C24.0442 31.0037 30.9846 24.0632 30.9846 15.5018C30.9846 6.94046 24.0442 0 15.4828 0C7.26781 0 0.545342 6.39111 0.0144043 14.4719C1.01912 16.1563 1.40908 17.1983 0.632055 19.9596H0.633024Z" fill="url(#paint0_linear_7_135)"/>
<path d="M14.6831 11.6192L14.6845 11.6957L10.8914 17.2061C10.2772 17.178 9.66097 17.2861 9.07578 17.5268C8.82103 17.6303 8.57781 17.7602 8.3501 17.9144L0.0202858 14.4812C0.0202858 14.4812 -0.172518 17.6523 0.63067 20.0153L6.51943 22.4453C6.81009 23.7668 7.72082 24.9256 9.05882 25.4827C10.1115 25.92 11.2947 25.9217 12.3486 25.4874C13.4025 25.053 14.2409 24.2182 14.6797 23.1661C14.9138 22.6057 15.0267 22.0021 15.011 21.395L20.4333 17.5171L20.5665 17.5196C23.8146 17.5196 26.4548 14.8716 26.4548 11.6192C26.4548 8.36669 23.8195 5.72848 20.5665 5.72169C17.3198 5.72169 14.6782 8.36669 14.6782 11.6192H14.6831ZM13.7723 22.7853C13.068 24.4808 11.1244 25.2787 9.43522 24.5748C8.68562 24.2598 8.07802 23.6801 7.72808 22.9462L9.64498 23.7406C9.9411 23.8639 10.2586 23.9276 10.5794 23.9281C10.9001 23.9286 11.2178 23.8659 11.5143 23.7436C11.8109 23.6213 12.0804 23.4417 12.3075 23.2152C12.5346 22.9887 12.7148 22.7197 12.8379 22.4235C13.0871 21.825 13.0886 21.152 12.842 20.5524C12.5954 19.9528 12.1208 19.4757 11.5226 19.2257L9.53647 18.4046C10.3009 18.114 11.17 18.1043 11.9829 18.4419C12.8064 18.7825 13.4361 19.4239 13.7733 20.244C14.1105 21.0641 14.1085 21.9686 13.7685 22.7853M20.5718 15.5503C19.531 15.5475 18.5337 15.1323 17.7984 14.3957C17.0632 13.659 16.6498 12.661 16.6489 11.6201C16.65 10.5795 17.0635 9.58169 17.7988 8.84525C18.5341 8.10881 19.5312 7.69373 20.5718 7.69091C21.6126 7.69347 22.61 8.10844 23.3455 8.84491C24.081 9.58138 24.4946 10.5793 24.4957 11.6201C24.4948 12.6611 24.0813 13.6593 23.3458 14.396C22.6103 15.1327 21.6128 15.5478 20.5718 15.5503ZM17.6323 11.6138C17.6317 10.8318 17.9415 10.0815 18.4938 9.52789C19.0461 8.97424 19.7956 8.66251 20.5776 8.66123C22.2029 8.66123 23.5249 9.98373 23.5249 11.6138C23.5253 12.396 23.2151 13.1464 22.6624 13.6999C22.1097 14.2534 21.3598 14.5647 20.5776 14.5655C19.7957 14.5643 19.0462 14.2528 18.4938 13.6993C17.9415 13.1459 17.6319 12.3958 17.6323 11.6138Z" fill="white"/>
<defs>
<linearGradient id="paint0_linear_7_135" x1="1548.53" y1="0" x2="1548.53" y2="3100.37" gradientUnits="userSpaceOnUse">
<stop stop-color="#111D2E"/>
<stop offset="0.212" stop-color="#051839"/>
<stop offset="0.407" stop-color="#0A1B48"/>
<stop offset="0.581" stop-color="#132E62"/>
<stop offset="0.738" stop-color="#144B7E"/>
<stop offset="0.873" stop-color="#136497"/>
<stop offset="1" stop-color="#1387B8"/>
</linearGradient>
</defs>
</svg>
